<svg xmlns="http://www.w3.org/2000/svg" width="117" height="108" viewBox="0 0 117 108" fill="none"><g clip-path="url(#clip0_6_15983)"><path d="M63.4244 54.8785C58.9383 53.4316 54.6068 53.9483 51.3067 56.3254C50.7911 56.6871 50.327 57.1005 49.9145 57.5139C47.8003 58.6507 45.7893 60.0976 43.9845 61.9062C40.3235 65.5235 37.8999 70.0192 37.178 74.5148C36.4561 79.2172 37.5905 83.4029 40.4266 86.2967C43.2626 89.1904 47.4394 90.4306 52.1317 89.7589C54.1943 89.4488 56.2569 88.8287 58.2679 87.8469C59.5055 88.5704 60.8462 89.1388 62.1868 89.6038C66.6729 91.0507 71.0044 90.534 74.3045 88.157C77.6046 85.7799 79.461 81.8526 79.5125 77.0986C79.5641 72.4995 77.9656 67.6938 74.9233 63.5081C71.881 59.3742 67.8074 56.2737 63.4244 54.8785Z" fill="#C6ADA3"></path><path d="M41.2001 49.9694C42.9018 51.3129 44.8097 52.0364 46.7691 52.0364C47.3879 52.0364 48.0067 51.9847 48.677 51.8297C51.2552 51.3129 53.4209 49.6077 54.7616 47.0756C56.0507 44.6469 56.4632 41.7014 55.8445 38.8077C54.5554 32.7101 49.2958 28.6794 44.0362 29.7646C41.458 30.2813 39.2922 31.9866 37.9516 34.5187C36.6625 36.9474 36.2499 39.8928 36.8687 42.7866C37.4875 45.6804 39.0344 48.2641 41.2001 49.9694Z" fill="#C6ADA3"></path><path d="M36.8171 55.7569C35.4764 53.1215 33.3623 51.0545 30.8356 49.9177C28.2058 48.7809 25.4729 48.7809 23.101 49.9694C20.729 51.1579 19.0789 53.3282 18.4086 56.1187C17.7382 58.8057 18.1508 61.7512 19.4399 64.3866C21.5024 68.5206 25.3698 71.001 29.1856 71.0526C30.5262 71.0526 31.8669 70.7943 33.1045 70.1742C35.4764 68.9856 37.1265 66.8153 37.7969 64.0249C38.5188 61.3378 38.1578 58.3923 36.8171 55.7569Z" fill="#C6ADA3"></path><path d="M68.5292 52.1397C69.148 52.2947 69.7668 52.3464 70.3856 52.3981C74.9748 52.4498 79.3062 48.8325 80.5954 43.51C82.0392 37.4641 79.0484 31.5215 73.8404 30.2813C71.2622 29.6612 68.6324 30.2297 66.312 31.9349C64.0947 33.5885 62.4962 36.0689 61.7743 38.9627C61.0524 41.8565 61.3618 44.8019 62.5993 47.2823C63.8884 49.7627 65.951 51.5196 68.5292 52.1397Z" fill="#C6ADA3"></path><path d="M94.1054 51.1062C89.413 48.5742 83.1737 50.9512 80.2345 56.4287C78.8423 59.0641 78.3782 61.9579 78.9454 64.6966C79.5126 67.4871 81.1111 69.7091 83.4315 70.9493C84.6691 71.6211 86.0097 71.9311 87.3504 71.9828C88.588 71.9828 89.8771 71.7761 91.1146 71.2593C93.6929 70.2258 95.8586 68.2105 97.2508 65.6268C100.242 60.1493 98.7977 53.6383 94.1054 51.1062Z" fill="#C6ADA3"></path><path d="M21.2446 107.07C21.2446 107.122 21.2446 107.173 21.2446 107.277C21.2446 107.38 21.2446 107.432 21.2446 107.483L21.193 107.535C21.0899 107.587 21.0383 107.638 20.9867 107.69C20.9352 107.742 20.8836 107.742 20.7805 107.793C20.7289 107.845 20.6258 107.845 20.5742 107.845C20.5227 107.845 20.4195 107.897 20.3164 107.897C20.2648 107.897 20.1617 107.948 20.1102 107.948C20.0586 107.948 20.007 107.948 19.9039 107.948C19.8008 107.948 19.6461 107.948 19.5429 107.948C19.4398 107.948 19.2851 107.948 19.182 107.948C19.0273 107.948 18.821 107.948 18.6663 107.897C18.4601 107.845 18.3054 107.793 18.1507 107.793C17.9444 107.742 17.6866 107.638 17.4288 107.535C17.171 107.432 16.9647 107.277 16.7585 107.122C16.5522 106.967 16.3459 106.76 16.1912 106.605C16.0366 106.398 15.8819 106.191 15.7787 105.985L15.5209 105.416C15.4693 105.21 15.4178 105.003 15.3662 104.744C15.3662 104.486 15.3662 104.279 15.3662 104.073C15.3662 103.556 15.4693 103.039 15.6756 102.626C15.8819 102.212 16.1912 101.747 16.5522 101.386C16.9131 101.024 17.3257 100.766 17.7897 100.559C18.2538 100.352 18.7695 100.249 19.2336 100.249C19.5429 100.249 19.8008 100.3 20.1102 100.352C20.4195 100.404 20.6774 100.559 20.9352 100.714C20.9867 100.766 21.0383 100.817 21.0383 100.869C21.0899 100.921 21.0899 101.024 21.0899 101.076C21.0899 101.127 21.0899 101.231 21.0899 101.282C21.0899 101.334 21.0899 101.437 21.0899 101.489V101.696C21.0899 101.799 21.0899 101.851 21.0899 101.954C21.0899 102.057 21.0383 102.057 20.9352 102.057C20.8836 102.057 20.8321 102.057 20.7289 102.006C20.6774 101.954 20.6258 101.902 20.5742 101.902C20.4195 101.799 20.2133 101.696 19.9555 101.644C19.6976 101.592 19.4914 101.592 19.2851 101.592C18.4601 101.592 17.8413 101.851 17.3772 102.316C16.9131 102.781 16.7069 103.453 16.7069 104.228C16.7069 104.434 16.7585 104.693 16.81 104.9C16.8616 105.158 16.9647 105.365 17.1194 105.571C17.2741 105.778 17.4288 105.985 17.5835 106.14C17.7382 106.295 17.9444 106.45 18.1507 106.553C18.2538 106.605 18.3054 106.605 18.4085 106.656C18.5117 106.708 18.5632 106.708 18.6663 106.708C18.821 106.708 18.9242 106.76 19.0789 106.76H19.4914C19.5945 106.76 19.6976 106.76 19.8008 106.708C19.9039 106.656 20.007 106.656 20.1102 106.605C20.2133 106.553 20.3164 106.501 20.4195 106.501C20.5227 106.45 20.6258 106.45 20.7289 106.45C20.8321 106.45 20.8836 106.501 20.9352 106.553C20.9867 106.605 20.9867 106.656 21.0383 106.76C21.0383 106.863 21.0899 106.915 21.0899 107.018C21.2446 106.967 21.2446 107.018 21.2446 107.07Z" fill="#442F32"></path><path d="M32.9498 107.793C32.9498 107.845 32.9498 107.897 32.8982 107.897C32.8467 107.897 32.8467 107.897 32.7951 107.948L32.1763 108H32.0216C31.8669 108 31.7638 107.948 31.7122 107.897C31.6607 107.845 31.6091 107.793 31.6091 107.69C31.6091 107.587 31.5575 107.483 31.5575 107.38C31.5575 107.277 31.5575 107.173 31.506 107.07C31.506 106.967 31.4029 106.915 31.3513 106.915C31.2482 106.915 31.0935 106.915 30.9903 106.915C30.8872 106.915 30.7325 106.915 30.6294 106.915C30.4747 106.915 30.3716 106.915 30.2169 106.915C30.0622 106.915 29.959 106.967 29.8044 106.967C29.7528 106.967 29.7012 106.967 29.6497 106.967C29.5981 106.967 29.5465 106.967 29.495 106.967C29.3918 106.967 29.2887 107.018 29.2887 107.122C29.2371 107.225 29.2371 107.328 29.2371 107.432C29.2371 107.535 29.2371 107.638 29.1856 107.742C29.1856 107.845 29.134 107.897 29.0309 107.948C28.9793 107.948 28.9278 108 28.8246 108C28.7731 108 28.6699 108 28.6184 108C28.5668 108 28.5152 108 28.4121 108C28.309 108 28.2574 108 28.1543 107.948C28.0512 107.948 27.9996 107.897 27.8965 107.897C27.8449 107.897 27.7933 107.845 27.7933 107.793C27.7933 107.793 27.7933 107.69 27.8449 107.535C27.8965 107.38 27.948 107.173 27.9996 106.915C28.0512 106.656 28.1543 106.398 28.2059 106.14C28.309 105.83 28.3605 105.571 28.4121 105.365C28.4637 105.106 28.5668 104.9 28.6184 104.744C28.6699 104.589 28.7215 104.486 28.7215 104.434C28.7731 104.331 28.7731 104.279 28.7731 104.176C28.7731 104.073 28.7731 104.021 28.8246 103.918C28.8762 103.763 28.9278 103.608 28.9793 103.504C29.0309 103.349 29.0824 103.194 29.0824 103.091C29.0824 103.039 29.134 102.884 29.134 102.729C29.1856 102.574 29.2371 102.367 29.2887 102.212C29.3403 102.006 29.3918 101.851 29.4434 101.696C29.495 101.541 29.5465 101.437 29.5465 101.386C29.5981 101.231 29.6497 101.076 29.7012 100.972C29.7528 100.817 29.7528 100.662 29.8044 100.559C29.8559 100.404 29.959 100.3 30.0622 100.3C30.2169 100.3 30.32 100.3 30.4747 100.3C30.5263 100.3 30.6294 100.352 30.6294 100.404C30.681 100.455 30.6809 100.507 30.7325 100.611C30.7841 100.662 30.7841 100.714 30.7841 100.817C30.7841 100.921 30.8356 101.076 30.9388 101.334C30.9903 101.592 31.0935 101.799 31.145 102.057C31.2482 102.316 31.2997 102.522 31.3513 102.729C31.4029 102.936 31.4544 103.039 31.4544 103.091C31.4544 103.091 31.4544 103.143 31.506 103.194C31.506 103.246 31.5575 103.349 31.5575 103.453C31.6091 103.556 31.6091 103.659 31.6091 103.711C31.6091 103.814 31.6607 103.866 31.6607 103.866C31.7122 104.073 31.7638 104.228 31.8154 104.434C31.8669 104.641 31.9185 104.796 31.9701 105.003C31.9701 105.055 32.0216 105.21 32.0732 105.365C32.1248 105.52 32.1763 105.675 32.2279 105.881C32.2795 106.088 32.3826 106.295 32.4341 106.501C32.4857 106.708 32.5888 106.915 32.6404 107.122C32.692 107.328 32.7435 107.483 32.7951 107.638C32.8467 107.793 32.9498 107.742 32.9498 107.793ZM31.0419 105.726C30.9903 105.623 30.9388 105.468 30.9388 105.365C30.8872 105.261 30.8356 105.158 30.8356 105.003C30.7841 104.693 30.681 104.383 30.5778 104.124C30.4747 103.814 30.4231 103.556 30.32 103.246C30.2684 103.298 30.2169 103.401 30.1653 103.556C30.1137 103.711 30.0622 103.814 30.0622 103.969C30.0106 104.124 30.0106 104.279 29.959 104.434C29.9075 104.589 29.9075 104.693 29.8559 104.796C29.8559 104.848 29.8044 104.951 29.8044 105.003C29.7528 105.106 29.7528 105.158 29.7012 105.261C29.6497 105.365 29.6497 105.416 29.5981 105.52C29.5981 105.623 29.5465 105.675 29.5465 105.726C29.7528 105.726 29.9075 105.726 30.1137 105.726H30.681C30.8872 105.778 30.9903 105.778 31.0419 105.726Z" fill="#442F32"></path><path d="M43.6752 100.611C43.6752 100.869 43.6752 101.076 43.6236 101.179C43.6236 101.282 43.572 101.386 43.4689 101.437C43.3658 101.489 43.3142 101.489 43.1595 101.489C43.0048 101.489 42.8501 101.489 42.5923 101.489H41.8188C41.7157 101.489 41.7157 101.489 41.7157 101.541V101.696C41.7157 101.902 41.7157 102.057 41.7157 102.264C41.7157 102.471 41.7157 102.626 41.7157 102.833C41.7157 102.936 41.7157 103.091 41.7157 103.194C41.7157 103.298 41.7157 103.401 41.7157 103.556C41.7157 103.659 41.7157 103.763 41.7157 103.866C41.7157 103.969 41.7157 104.073 41.7157 104.176V106.915C41.7157 107.018 41.7157 107.122 41.7157 107.225C41.7157 107.328 41.7157 107.432 41.7157 107.535C41.7157 107.69 41.6641 107.845 41.6126 107.897C41.561 107.948 41.4063 108 41.2516 108C40.9938 108 40.7876 108 40.6329 107.948C40.5297 107.948 40.4266 107.897 40.375 107.793C40.3235 107.742 40.3235 107.587 40.3235 107.432C40.3235 107.277 40.3235 107.07 40.3235 106.811C40.3235 106.45 40.3235 106.088 40.3235 105.726C40.3235 105.365 40.3235 105.003 40.3235 104.641C40.3235 104.538 40.3235 104.434 40.3235 104.383C40.3235 104.279 40.3235 104.228 40.3235 104.124C40.3235 103.866 40.3235 103.556 40.3235 103.298C40.3235 103.039 40.3235 102.729 40.3235 102.471C40.3235 102.419 40.3235 102.419 40.3235 102.367C40.3235 102.316 40.3235 102.316 40.3235 102.264C40.3235 102.161 40.3235 102.057 40.2719 101.954C40.2719 101.851 40.2719 101.747 40.2719 101.644C40.2719 101.592 40.2719 101.541 40.2719 101.541C40.2719 101.541 40.2203 101.489 40.1688 101.489C39.911 101.489 39.6531 101.489 39.3953 101.489C39.1375 101.489 38.8797 101.489 38.6218 101.489C38.5187 101.489 38.4671 101.489 38.4156 101.437C38.364 101.386 38.364 101.334 38.364 101.231C38.364 101.127 38.364 101.024 38.364 100.921C38.364 100.817 38.364 100.714 38.364 100.611C38.364 100.507 38.364 100.456 38.4156 100.352C38.4671 100.249 38.5187 100.197 38.6218 100.197C39.0859 100.197 39.55 100.197 40.0141 100.197C40.4782 100.197 40.9422 100.197 41.4063 100.197C41.7157 100.197 42.0251 100.197 42.3861 100.197C42.6954 100.197 43.0048 100.197 43.3658 100.249C43.4689 100.249 43.572 100.3 43.572 100.404C43.6752 100.456 43.6752 100.559 43.6752 100.611Z" fill="#442F32"></path><path d="M65.8995 107.07C65.8995 107.122 65.8995 107.173 65.8995 107.277C65.8995 107.328 65.8995 107.432 65.8995 107.483L65.8479 107.535C65.7448 107.587 65.6932 107.638 65.6417 107.69C65.5901 107.742 65.5385 107.742 65.4354 107.793C65.3838 107.845 65.2807 107.845 65.2291 107.845C65.1776 107.845 65.0744 107.897 64.9713 107.897C64.9198 107.897 64.8166 107.948 64.7651 107.948C64.7135 107.948 64.6619 107.948 64.5588 107.948C64.4557 107.948 64.301 107.948 64.1978 107.948C64.0947 107.948 63.94 107.948 63.8369 107.948C63.6822 107.948 63.4759 107.948 63.3213 107.897C63.115 107.845 62.9603 107.793 62.8056 107.793C62.5993 107.742 62.3415 107.638 62.0837 107.535C61.8259 107.432 61.6196 107.277 61.4134 107.122C61.2071 106.967 61.0008 106.76 60.8462 106.605C60.6915 106.398 60.5368 106.191 60.4336 105.985L60.1758 105.416C60.1242 105.21 60.0727 105.003 60.0211 104.744C60.0211 104.486 60.0211 104.279 60.0211 104.073C60.0211 103.556 60.1242 103.039 60.3305 102.626C60.5368 102.161 60.8461 101.747 61.2071 101.386C61.5681 101.024 61.9806 100.766 62.4447 100.559C62.9087 100.352 63.4244 100.249 63.8885 100.249C64.1978 100.249 64.4557 100.3 64.7651 100.352C65.0744 100.404 65.3323 100.559 65.5901 100.714C65.6417 100.766 65.6932 100.817 65.6932 100.869C65.7448 100.921 65.7448 101.024 65.7448 101.076C65.7448 101.127 65.7448 101.231 65.7448 101.282C65.7448 101.334 65.7448 101.437 65.7448 101.489V101.696C65.7448 101.799 65.7448 101.851 65.7448 101.954C65.7448 102.057 65.6932 102.057 65.5901 102.057C65.5385 102.057 65.487 102.057 65.3838 102.006C65.3323 101.954 65.2807 101.902 65.2291 101.902C65.0744 101.799 64.8682 101.696 64.6104 101.644C64.3525 101.592 64.1463 101.592 63.94 101.592C63.115 101.592 62.4962 101.851 62.0321 102.316C61.5681 102.781 61.3618 103.453 61.3618 104.228C61.3618 104.434 61.4134 104.693 61.4649 104.9C61.5165 105.158 61.6196 105.365 61.7743 105.571C61.929 105.778 62.0837 105.985 62.2384 106.14C62.3931 106.295 62.5993 106.45 62.8056 106.553C62.9087 106.605 62.9603 106.605 63.0634 106.656C63.1666 106.708 63.2181 106.708 63.3213 106.708C63.4759 106.708 63.5791 106.76 63.7338 106.76H64.1463C64.2494 106.76 64.3525 106.76 64.4557 106.708C64.5588 106.656 64.6619 106.656 64.7651 106.605C64.8682 106.553 64.9713 106.501 65.0744 106.501C65.1776 106.45 65.2807 106.45 65.3838 106.45C65.487 106.45 65.5385 106.501 65.5901 106.553C65.6417 106.605 65.6417 106.656 65.6932 106.76C65.6932 106.863 65.7448 106.915 65.7448 107.018C65.8995 106.967 65.8995 107.018 65.8995 107.07Z" fill="#442F32"></path><path d="M77.5531 107.793C77.5531 107.845 77.5531 107.897 77.5015 107.897C77.4499 107.897 77.4499 107.897 77.3984 107.948L76.7796 108H76.6249C76.4702 108 76.3671 107.948 76.3155 107.897C76.264 107.845 76.2124 107.793 76.2124 107.69C76.2124 107.587 76.1608 107.483 76.1608 107.38C76.1608 107.277 76.1608 107.173 76.1093 107.07C76.1093 106.967 76.0061 106.915 75.9546 106.915C75.8514 106.915 75.6967 106.915 75.5936 106.915C75.4905 106.915 75.3358 106.915 75.2327 106.915C75.078 106.915 74.9748 106.915 74.8201 106.915C74.6655 106.915 74.5623 106.967 74.4076 106.967C74.3561 106.967 74.3045 106.967 74.2529 106.967C74.2014 106.967 74.1498 106.967 74.0982 106.967C73.9951 106.967 73.892 107.018 73.892 107.122C73.8404 107.225 73.8404 107.328 73.8404 107.432C73.8404 107.535 73.7889 107.638 73.7889 107.742C73.7889 107.845 73.7373 107.897 73.6342 107.948C73.5826 107.948 73.531 108 73.4279 108C73.3763 108 73.2732 108 73.2216 108C73.1701 108 73.1185 108 73.0154 108C72.9123 108 72.8607 108 72.7576 107.948C72.6544 107.948 72.6029 107.897 72.4997 107.897C72.3966 107.897 72.3966 107.845 72.3966 107.793C72.3966 107.793 72.3966 107.69 72.4482 107.535C72.4997 107.38 72.5513 107.173 72.6029 106.915C72.6544 106.656 72.7576 106.398 72.8091 106.14C72.9123 105.83 72.9638 105.571 73.0154 105.365C73.067 105.106 73.1701 104.9 73.2216 104.744C73.2732 104.589 73.3248 104.486 73.3248 104.434C73.3763 104.331 73.3763 104.279 73.3763 104.176C73.3763 104.073 73.3763 104.021 73.4279 103.918C73.4795 103.763 73.531 103.608 73.5826 103.504C73.6342 103.349 73.6857 103.194 73.6857 103.091C73.6857 103.039 73.7373 102.884 73.7373 102.729C73.7889 102.574 73.8404 102.367 73.892 102.212C73.9435 102.006 73.9951 101.851 74.0467 101.696C74.0982 101.541 74.1498 101.437 74.1498 101.386C74.2014 101.231 74.2529 101.076 74.3045 100.972C74.3561 100.817 74.3561 100.662 74.4076 100.559C74.4592 100.404 74.5623 100.3 74.6655 100.3C74.8201 100.3 74.9233 100.3 75.078 100.3C75.1295 100.3 75.2327 100.352 75.2327 100.404C75.2842 100.455 75.2842 100.507 75.3358 100.611C75.3874 100.662 75.3874 100.714 75.3874 100.817C75.3874 100.921 75.4389 101.076 75.542 101.334C75.5936 101.592 75.6967 101.799 75.7483 102.057C75.7999 102.316 75.903 102.522 75.9546 102.729C76.0061 102.936 76.0577 103.039 76.0577 103.091C76.0577 103.091 76.0577 103.143 76.1093 103.194C76.1093 103.246 76.1608 103.349 76.1608 103.453C76.2124 103.556 76.2124 103.659 76.2124 103.711C76.2124 103.814 76.2639 103.866 76.2639 103.866C76.3155 104.073 76.3671 104.228 76.4186 104.434C76.4702 104.641 76.5218 104.796 76.5733 105.003C76.5733 105.055 76.6249 105.21 76.6765 105.365C76.728 105.52 76.7796 105.675 76.8312 105.881C76.8827 106.088 76.9859 106.295 77.0374 106.501C77.089 106.708 77.1921 106.915 77.2437 107.122C77.2952 107.328 77.3468 107.483 77.3984 107.638C77.5531 107.69 77.5531 107.742 77.5531 107.793ZM75.6967 105.726C75.6452 105.623 75.5936 105.468 75.5936 105.365C75.5421 105.261 75.4905 105.158 75.4905 105.003C75.4389 104.693 75.3358 104.383 75.2327 104.124C75.1295 103.814 75.078 103.556 74.9748 103.246C74.9233 103.298 74.8717 103.401 74.8201 103.556C74.7686 103.711 74.717 103.814 74.717 103.969C74.6654 104.124 74.6654 104.279 74.6139 104.434C74.5623 104.589 74.5623 104.693 74.5108 104.796C74.5108 104.848 74.4592 104.951 74.4592 105.003C74.4076 105.106 74.4076 105.158 74.3561 105.261C74.3045 105.365 74.3045 105.416 74.2529 105.52C74.2529 105.623 74.2014 105.675 74.2014 105.726C74.4076 105.726 74.5623 105.726 74.7686 105.726H75.3358C75.4905 105.778 75.5936 105.778 75.6967 105.726Z" fill="#442F32"></path><path d="M89.2068 101.024C89.2068 101.179 89.1552 101.282 89.0521 101.282C88.9489 101.282 88.8458 101.282 88.7427 101.282H88.227C87.9692 101.282 87.7629 101.282 87.5051 101.282C87.2989 101.282 87.041 101.282 86.7832 101.282C86.6801 101.282 86.6285 101.282 86.5254 101.282C86.4223 101.282 86.3707 101.282 86.2676 101.282C86.1644 101.282 86.0613 101.282 86.0097 101.282C85.9066 101.282 85.8035 101.282 85.7519 101.282C85.7519 101.437 85.7004 101.592 85.7004 101.747C85.7004 101.902 85.7004 102.057 85.7004 102.212V102.367V102.574C85.7004 102.626 85.7004 102.678 85.7004 102.781C85.7004 102.833 85.7004 102.884 85.7519 102.884L85.8035 102.936C85.855 102.936 85.8551 102.936 85.9066 102.936H86.0097C86.216 102.936 86.4223 102.936 86.6801 102.884C86.8863 102.884 87.1442 102.833 87.3504 102.833C87.6082 102.833 87.8145 102.833 88.0723 102.833C88.3302 102.833 88.5364 102.833 88.7942 102.884C88.8458 102.884 88.8974 102.936 88.9489 102.988C88.9489 103.039 88.9489 103.039 88.9489 103.091C88.9489 103.143 88.9489 103.194 88.9489 103.246V103.401V103.556C88.9489 103.711 88.8974 103.763 88.8458 103.814C88.7942 103.866 88.6911 103.918 88.6395 103.918C88.5364 103.918 88.4333 103.918 88.3302 103.918C88.227 103.918 88.1239 103.918 88.0208 103.918C87.7114 103.918 87.402 103.918 87.0926 103.918C86.7832 103.918 86.4738 103.918 86.1644 103.918C86.1129 103.918 86.0613 103.918 86.0097 103.918C85.9582 103.918 85.9066 103.918 85.855 103.918C85.8035 103.918 85.7519 103.969 85.7519 104.021C85.7519 104.073 85.7004 104.124 85.7004 104.228C85.7004 104.279 85.7004 104.383 85.7004 104.434V104.589C85.7004 104.641 85.7004 104.641 85.7004 104.693C85.7004 104.744 85.7004 104.796 85.7004 104.796C85.7004 104.848 85.7004 104.9 85.7004 104.951C85.7004 105.003 85.7004 105.055 85.7004 105.106C85.7004 105.158 85.7004 105.21 85.7004 105.313C85.7004 105.365 85.7004 105.468 85.7004 105.52C85.7004 105.83 85.7004 106.14 85.6488 106.398C85.6488 106.708 85.5972 106.967 85.5972 107.277C85.5972 107.38 85.5972 107.483 85.5972 107.535C85.5972 107.587 85.5457 107.638 85.5457 107.69C85.4941 107.742 85.4425 107.742 85.391 107.742C85.3394 107.742 85.2363 107.742 85.1331 107.742H84.9784C84.8753 107.742 84.8238 107.742 84.7206 107.742C84.6175 107.742 84.5659 107.69 84.5144 107.69C84.4628 107.638 84.4112 107.638 84.4112 107.587C84.4112 107.535 84.4112 107.535 84.4112 107.483C84.4112 107.432 84.4112 107.432 84.4112 107.38C84.4112 107.277 84.4112 107.122 84.4112 107.018C84.4112 106.915 84.4112 106.76 84.4112 106.656C84.4112 106.346 84.4112 105.985 84.4112 105.675C84.4112 105.365 84.4112 105.055 84.4112 104.693C84.4112 104.589 84.4112 104.538 84.3597 104.434C84.3597 104.331 84.3081 104.279 84.3081 104.176V103.401C84.3081 103.143 84.3081 102.884 84.3081 102.626C84.3081 102.522 84.3081 102.471 84.3081 102.367C84.3081 102.316 84.3081 102.212 84.3081 102.109C84.3081 102.057 84.3081 102.006 84.3081 101.954C84.3081 101.902 84.3081 101.851 84.3081 101.799C84.3081 101.747 84.3081 101.696 84.3597 101.592C84.3597 101.541 84.4112 101.489 84.4112 101.386C84.4112 101.334 84.4112 101.282 84.4112 101.179C84.4112 101.076 84.4112 100.972 84.4112 100.921C84.4112 100.817 84.4112 100.714 84.4112 100.611C84.4112 100.507 84.4112 100.404 84.4112 100.3C84.4112 100.249 84.4112 100.145 84.4628 100.145C84.5144 100.094 84.5659 100.042 84.6175 100.042C84.6691 100.042 84.7722 99.9904 84.8238 99.9904C84.8753 99.9904 84.9784 99.9904 85.03 99.9904C85.03 99.9904 85.03 99.9904 85.0816 100.042C85.0816 100.042 85.0816 100.094 85.1331 100.094C85.391 100.094 85.5972 100.094 85.855 100.042C86.1129 100.042 86.3191 99.9904 86.577 99.9904C86.9379 99.9904 87.3504 99.9904 87.7114 99.9904C88.1239 99.9904 88.4849 99.9904 88.8458 100.042C89.0005 100.042 89.0521 100.145 89.1036 100.249C89.1036 100.352 89.1036 100.456 89.1036 100.559C89.2068 100.817 89.2068 100.921 89.2068 101.024Z" fill="#442F32"></path><path d="M101.531 107.328C101.531 107.483 101.531 107.638 101.479 107.742C101.427 107.845 101.324 107.897 101.118 107.897C101.015 107.897 100.963 107.897 100.86 107.948C100.757 107.948 100.706 108 100.602 108C100.499 108 100.448 108 100.345 108C100.293 108 100.19 108 100.087 108C99.8805 108 99.6227 108 99.4164 108C99.2102 108 98.9524 108 98.6945 108C98.3336 108 97.9726 108 97.6117 108C97.2507 108 96.8898 108 96.5288 108C96.3226 108 96.271 107.897 96.271 107.742C96.271 107.638 96.271 107.587 96.271 107.483C96.271 107.38 96.271 107.328 96.271 107.225C96.271 107.122 96.271 107.07 96.271 106.967C96.271 106.863 96.271 106.811 96.271 106.708C96.271 106.656 96.271 106.605 96.3226 106.605C96.3226 106.553 96.3741 106.501 96.3741 106.501C96.3741 106.295 96.3741 106.088 96.3741 105.881C96.3741 105.675 96.3741 105.468 96.3741 105.261C96.3741 104.848 96.3741 104.486 96.3741 104.073C96.3741 103.711 96.3741 103.298 96.3741 102.936C96.3741 102.833 96.3741 102.729 96.3741 102.626C96.3741 102.522 96.3741 102.419 96.3741 102.316C96.3741 102.109 96.3741 101.954 96.3226 101.747C96.271 101.541 96.271 101.386 96.271 101.179C96.271 101.076 96.271 100.921 96.271 100.817C96.271 100.714 96.271 100.611 96.3226 100.507C96.3741 100.404 96.4257 100.352 96.4773 100.3C96.5804 100.249 96.6835 100.197 96.8382 100.197C96.9413 100.197 97.0445 100.197 97.1476 100.197C97.2507 100.197 97.3539 100.197 97.457 100.197H99.2102C99.3649 100.197 99.468 100.197 99.6227 100.197C99.7774 100.197 99.8805 100.197 100.035 100.197C100.138 100.197 100.19 100.197 100.293 100.197C100.345 100.197 100.448 100.197 100.551 100.197H101.118C101.273 100.197 101.324 100.249 101.324 100.404C101.324 100.456 101.324 100.507 101.324 100.559C101.324 100.611 101.324 100.662 101.324 100.714C101.324 100.869 101.324 100.972 101.273 101.024C101.221 101.076 101.221 101.127 101.17 101.179C101.118 101.231 101.067 101.231 100.963 101.231C100.86 101.231 100.757 101.231 100.654 101.231C100.345 101.231 100.087 101.231 99.7774 101.231C99.468 101.231 99.2102 101.231 98.9008 101.231C98.7461 101.231 98.5398 101.231 98.3851 101.231C98.2305 101.231 98.0242 101.231 97.8695 101.282C97.8179 101.282 97.7664 101.282 97.7664 101.334C97.7664 101.334 97.7664 101.386 97.7664 101.437C97.7664 101.592 97.7664 101.747 97.7664 101.851C97.7664 102.006 97.7664 102.161 97.7664 102.264C97.7664 102.316 97.7664 102.367 97.7664 102.419C97.7664 102.471 97.7664 102.574 97.7664 102.626C97.7664 102.729 97.7664 102.781 97.8179 102.833C97.8179 102.884 97.8695 102.936 97.8695 102.936C98.3336 102.936 98.7461 102.936 99.2102 102.884C99.6743 102.833 100.087 102.833 100.551 102.833C100.654 102.833 100.706 102.833 100.809 102.833C100.912 102.833 100.963 102.884 101.015 102.936C101.015 102.936 101.015 102.988 101.015 103.039C101.015 103.091 101.015 103.143 101.015 103.194C101.015 103.246 101.015 103.298 101.015 103.349V103.453C101.015 103.504 101.015 103.556 101.015 103.608C101.015 103.659 100.963 103.659 100.963 103.711C100.963 103.763 100.86 103.763 100.757 103.763C100.602 103.763 100.499 103.763 100.345 103.814C100.19 103.814 100.035 103.814 99.8805 103.814C99.7258 103.814 99.6227 103.814 99.5711 103.814C99.3133 103.814 99.0555 103.814 98.7977 103.814C98.5398 103.814 98.282 103.814 98.0242 103.866C97.9211 103.866 97.8695 103.866 97.8695 103.918C97.8695 103.969 97.8179 103.969 97.8179 104.073C97.8179 104.228 97.8179 104.383 97.8179 104.538C97.8179 104.693 97.8179 104.848 97.8179 105.003C97.8179 105.21 97.8179 105.416 97.8179 105.571C97.8179 105.778 97.8179 105.985 97.8179 106.14C97.8179 106.191 97.8179 106.243 97.8179 106.295C97.8179 106.346 97.8179 106.398 97.8179 106.45C97.8179 106.501 97.8179 106.553 97.8695 106.605C97.8695 106.656 97.9211 106.656 97.9211 106.656C98.0242 106.656 98.1273 106.656 98.2305 106.656C98.3336 106.656 98.4367 106.656 98.5398 106.656C98.643 106.656 98.6945 106.656 98.7977 106.656C98.8492 106.656 98.9524 106.656 99.0555 106.656C99.4164 106.656 99.829 106.656 100.19 106.605C100.551 106.553 100.963 106.553 101.324 106.553C101.531 106.553 101.685 106.605 101.737 106.656C101.479 106.967 101.531 107.122 101.531 107.328Z" fill="#442F32"></path><path d="M60.6915 84.7981C60.4337 84.6948 60.1243 84.6431 59.8665 84.5397C59.5055 84.3847 59.093 84.1263 58.7836 83.868C58.4227 83.6096 58.0617 83.2995 57.7007 82.9378C53.0084 85.4699 47.955 85.9349 44.2424 84.0747C45.4799 83.6096 46.9753 82.9378 48.4707 82.0593C50.2755 80.9742 51.7708 79.6823 53.0599 78.1837C52.338 77.4086 51.7193 76.5818 51.1005 75.7034C50.0176 77.0986 48.6254 78.2871 46.9753 79.3723C44.7065 80.7675 42.4892 81.4909 41.3032 81.801C36.9718 76.6852 38.6219 67.4354 45.2737 60.7177C46.5628 59.3742 47.955 58.289 49.3989 57.3072C49.3473 56.8421 49.2957 56.377 49.2957 55.912C49.2957 55.0852 49.3989 54.3101 49.5535 53.5866C47.2331 54.8268 45.0159 56.4804 43.0048 58.4957C39.1375 62.423 36.6624 67.2287 35.9405 72.0861C35.2186 77.0986 36.5593 81.5426 39.6016 84.5914C42.6955 87.6402 47.13 88.8804 52.1318 88.1053C55.071 87.6402 57.9586 86.5034 60.6399 84.7981C60.6915 84.8498 60.6915 84.7981 60.6915 84.7981Z" fill="#442F32"></path><path d="M63.6822 50.6928C58.8351 49.2459 54.2974 49.866 50.7911 52.4498C47.3362 55.0335 45.4283 59.2708 45.4799 64.2833C45.4799 69.1923 47.3362 74.3081 50.5848 78.7005C53.8849 83.0928 58.2679 86.3483 62.9087 87.7435C67.7558 89.1904 72.2935 88.5703 75.7999 85.9866C79.2547 83.4029 81.1626 79.1655 81.1626 74.1014C81.1626 69.1923 79.3063 64.0766 76.0577 59.6842C72.7576 55.3435 68.3746 52.088 63.6822 50.6928ZM53.0599 76.8919C48.1613 70.3292 47.2331 62.3713 50.327 57.4622C50.4817 58.3407 50.6879 59.2708 51.0489 60.3043C52.2349 63.6115 55.0709 67.9005 62.0321 69.5541C66.5182 70.6392 69.7668 73.4813 71.6747 78.0287C72.706 80.4574 73.0669 82.7828 73.2216 83.9713C67.5495 87.4852 58.732 84.4364 53.0599 76.8919ZM76.0061 81.3876C75.7483 80.0957 75.3358 78.5455 74.6139 76.8919C72.345 71.4144 68.2199 67.8488 62.754 66.5053C53.6271 64.2832 53.163 56.8421 53.2146 54.5167C58.8867 50.8995 67.8589 53.9483 73.531 61.5445C78.5844 68.3655 79.4094 76.5301 76.0061 81.3876Z" fill="#442F32"></path><path d="M45.8925 47.9024C43.7783 47.9024 41.7157 47.179 39.911 45.7837C37.5906 43.9751 35.8889 41.3397 35.2186 38.2392C34.4967 35.1388 34.8576 31.9866 36.2499 29.4029C37.6421 26.7158 39.911 24.8555 42.6439 24.2354C48.2129 22.9952 53.885 27.2325 55.3803 33.6919C56.1022 36.7924 55.7413 39.9445 54.349 42.5282C52.9568 45.2153 50.688 47.0756 47.955 47.6957C47.2331 47.8507 46.5628 47.9024 45.8925 47.9024ZM44.6033 26.9742C44.1393 26.9742 43.7267 27.0258 43.2627 27.1292C41.4063 27.5426 39.8594 28.8345 38.8281 30.7464C37.7968 32.7617 37.539 35.1388 38.0546 37.5675C38.6219 39.9445 39.8594 42.0632 41.6642 43.4067C43.3658 44.6986 45.3253 45.1636 47.1816 44.7502C49.0379 44.3368 50.5848 43.045 51.6161 41.133C52.6474 39.1177 52.9052 36.7407 52.3896 34.312C51.4614 30.023 48.1097 26.9742 44.6033 26.9742Z" fill="#442F32"></path><path d="M27.4839 68.5206C23.4103 68.5206 19.2336 65.9368 16.9648 61.5962C15.521 58.8057 15.0569 55.6536 15.7272 52.7598C16.3976 49.7627 18.1508 47.4373 20.6259 46.1454C23.101 44.8536 26.0401 44.8019 28.8246 45.9387C31.5575 47.0756 33.8264 49.2459 35.2702 52.0364C36.714 54.8268 37.1781 57.9789 36.5077 60.8727C35.8374 63.8698 34.0842 66.1952 31.6091 67.4871C30.3716 68.1588 28.9278 68.5206 27.4839 68.5206ZM24.8542 48.1091C23.8744 48.1091 22.8947 48.3158 22.0181 48.7809C20.3165 49.6593 19.1305 51.3129 18.6664 53.3799C18.1508 55.5502 18.5117 57.9789 19.6461 60.1493C21.915 64.5933 26.7105 66.6603 30.32 64.8C32.0216 63.9215 33.2076 62.2679 33.6717 60.2009C34.1873 58.0306 33.8264 55.6019 32.692 53.4316C31.5575 51.2612 29.8043 49.556 27.7418 48.7292C26.762 48.3158 25.7823 48.1091 24.8542 48.1091Z" fill="#442F32"></path><path d="M71.056 47.9024C70.3856 47.9024 69.7153 47.8507 69.0965 47.6957C66.3636 47.0756 64.0948 45.267 62.7025 42.5282C61.3618 39.8928 61.0009 36.7407 61.6712 33.6919C62.3931 30.5914 64.0432 27.9043 66.3636 26.1474C68.7871 24.2871 71.6232 23.6153 74.3561 24.2354C79.9251 25.4756 83.2252 31.7799 81.7814 38.2392C80.4923 43.9235 75.9546 47.9024 71.056 47.9024ZM72.3967 26.9742C70.9529 26.9742 69.509 27.4909 68.1684 28.4727C66.3636 29.8163 65.1261 31.8833 64.5588 34.312C63.9916 36.689 64.301 39.1177 65.3323 41.133C66.312 43.045 67.859 44.3368 69.7669 44.7502C73.6858 45.6287 77.8109 42.4249 78.8938 37.5675C79.9767 32.7101 77.6563 28.0077 73.7373 27.1292C73.2733 27.0258 72.8607 26.9742 72.3967 26.9742Z" fill="#442F32"></path><path d="M89.516 68.5206C88.0207 68.5206 86.6284 68.1588 85.2877 67.4871C82.8126 66.1952 81.0594 63.8182 80.3891 60.8727C79.7187 57.9789 80.1828 54.8785 81.6266 52.0364C84.669 46.1454 91.2692 43.51 96.3226 46.0938C101.376 48.7292 103.026 55.6536 99.9836 61.5445C98.5398 64.3349 96.2194 66.5053 93.5381 67.6421C92.1974 68.2105 90.8567 68.5206 89.516 68.5206ZM92.1458 48.1091C89.1551 48.1091 86.0612 50.1244 84.308 53.4316C83.1736 55.6019 82.8126 58.0306 83.3283 60.2009C83.7924 62.3196 84.9783 63.9215 86.68 64.8C88.3816 65.6785 90.3926 65.7301 92.4036 64.9033C94.4662 64.0249 96.2194 62.3713 97.3538 60.2009C99.6227 55.7569 98.5914 50.6411 94.9819 48.7809C94.1053 48.3158 93.1255 48.1091 92.1458 48.1091Z" fill="#442F32"></path><path d="M8.55975 25.6306C8.61132 25.6823 8.66288 25.734 8.71445 25.8373C8.76601 25.889 8.81758 25.9923 8.86914 26.044C8.97227 26.199 9.0754 26.3541 9.28166 26.4574C9.43635 26.6124 9.59104 26.7675 9.69417 26.8708C9.74574 26.9225 9.7973 26.9742 9.84887 26.9742C9.90043 27.0258 9.952 27.0258 10.0036 27.0775C10.0551 27.1292 10.1583 27.2325 10.1583 27.2842C10.2098 27.3359 10.2614 27.4392 10.3129 27.4909C10.6223 27.9043 10.9833 28.3177 11.3958 28.6794C11.7568 29.0412 12.1693 29.4545 12.5302 29.8163C12.5818 29.9196 12.6849 29.9713 12.7365 30.0746C12.788 30.1263 12.8396 30.2297 12.788 30.3847C12.6334 30.8498 12.4271 31.3148 12.1177 31.6766C11.8083 32.09 11.4989 32.4517 11.138 32.7617C10.9833 32.9168 10.8286 33.0201 10.6739 33.1234C10.5192 33.2268 10.3129 33.3301 10.1583 33.4335C10.0036 33.5368 9.84887 33.6402 9.64261 33.7952C9.43635 33.8986 9.28166 34.0019 9.12696 34.1053C8.66288 34.2603 8.30193 34.4153 8.04411 34.467C7.78629 34.5703 7.52846 34.622 7.27064 34.6737C7.01282 34.7254 6.75499 34.7254 6.44561 34.7254C6.13622 34.7254 5.77527 34.7254 5.31119 34.6737C5.15649 34.6737 4.95023 34.622 4.69241 34.5187C4.43459 34.4153 4.22833 34.3636 4.1252 34.2603L3.97051 34.2086C3.81581 34.2086 3.60956 34.1053 3.45486 34.0536C3.30017 33.9502 3.14547 33.8469 2.93922 33.7435C2.68139 33.5885 2.42357 33.3818 2.16575 33.2268C1.90793 33.0718 1.70167 32.8651 1.44384 32.6067C1.28915 32.4517 1.13446 32.2967 1.03133 32.09C0.928199 31.8833 0.773505 31.7282 0.618811 31.5732C0.567247 31.4182 0.515682 31.2632 0.515682 31.1598C0.515682 31.0565 0.464118 30.9014 0.412553 30.7464C0.360988 30.6431 0.309424 30.5397 0.309424 30.3847C0.257859 30.2813 0.257859 30.1263 0.206295 30.023C0.15473 29.8679 0.103166 29.6612 0.0516011 29.4545C0.0516011 29.4029 0.0516011 29.2995 0.0516011 29.1962C3.65339e-05 28.4727 0.0516011 27.801 0.15473 27.1292C0.257859 26.4574 0.515682 25.8373 0.82507 25.1656C0.928199 24.9589 1.03133 24.8038 1.08289 24.6488C1.18602 24.4938 1.28915 24.3388 1.44384 24.1837C1.59854 24.0287 1.75323 23.822 1.90793 23.6153C2.06262 23.4086 2.21731 23.2019 2.37201 23.0469C2.47514 22.9435 2.62983 22.8402 2.83609 22.6335C3.04235 22.4268 3.30017 22.2718 3.50643 22.1167C3.71269 21.9617 3.97051 21.8584 4.22833 21.755C4.43459 21.7034 4.64085 21.7034 4.74398 21.8067C4.79554 21.8584 4.84711 21.9101 4.95023 22.0134C5.05336 22.1167 5.10493 22.2201 5.20806 22.3234C5.31119 22.4268 5.36275 22.5301 5.46588 22.6852C5.51745 22.7885 5.62057 22.8919 5.62057 22.9435C5.7237 23.1502 5.7237 23.3053 5.56901 23.4086C5.36275 23.6153 5.05336 23.822 4.69241 24.0287C4.33146 24.2354 4.02207 24.4421 3.71268 24.7005C3.60956 24.8038 3.50643 24.9072 3.35173 25.0622C3.2486 25.1656 3.14547 25.3206 3.04235 25.4239C2.88765 25.6306 2.78452 25.889 2.62983 26.1474C2.5267 26.4057 2.42357 26.6641 2.32044 26.9225C2.26888 27.0258 2.26888 27.1292 2.26888 27.2842C2.26888 27.4392 2.26888 27.5426 2.26888 27.6459C2.16575 28.2144 2.21731 28.7828 2.32044 29.3512C2.42357 29.9713 2.73296 30.488 3.14547 30.9531C3.19704 31.0048 3.2486 31.0565 3.2486 31.1081C3.30017 31.1598 3.30017 31.2115 3.35173 31.2632C3.50643 31.4182 3.71268 31.5215 3.97051 31.6766C4.22833 31.7799 4.43459 31.8833 4.64085 31.9349C4.79554 31.9866 5.0018 32.0383 5.15649 32.09C5.31119 32.1933 5.46588 32.245 5.67214 32.245C6.13622 32.2967 6.6003 32.3483 6.96125 32.2967C7.37377 32.2967 7.73472 32.245 8.09567 32.09C8.45662 31.9866 8.76601 31.7799 9.12696 31.5732C9.43635 31.3665 9.7973 31.0565 10.1583 30.7464C10.2614 30.6431 10.3129 30.5914 10.3645 30.488C10.4161 30.4364 10.3645 30.333 10.2614 30.2297C10.0036 29.9713 9.74574 29.7129 9.48792 29.4029C9.23009 29.1445 8.97227 28.8345 8.71445 28.5761C8.55975 28.4211 8.45662 28.3177 8.40506 28.3694C8.35349 28.3694 8.25037 28.4727 8.09567 28.6278C7.88941 28.8345 7.73472 28.9895 7.58003 29.0928C7.4769 29.1962 7.3222 29.2995 7.21908 29.2995C7.11595 29.2995 7.01282 29.2995 6.85812 29.1962C6.70343 29.0928 6.54874 28.9378 6.34248 28.7311C6.29091 28.6794 6.18778 28.5761 6.13622 28.5244C6.03309 28.4211 5.98153 28.3694 5.8784 28.266C5.82683 28.1627 5.77527 28.111 5.77527 28.0077C5.77527 27.9043 5.77527 27.801 5.8784 27.6976C5.92996 27.6459 5.98153 27.5943 6.03309 27.5426C6.08465 27.4909 6.13622 27.4392 6.13622 27.3876C6.23935 27.2842 6.39404 27.1292 6.54874 27.0258C6.70343 26.9225 6.80656 26.7675 6.96125 26.6641C7.01282 26.5091 7.06438 26.4574 7.16751 26.3541C7.27064 26.3024 7.37377 26.199 7.4769 26.0957C7.58003 25.9923 7.63159 25.889 7.73472 25.7857C7.78629 25.6823 7.88941 25.579 7.99254 25.4756C8.14724 25.4239 8.3535 25.4239 8.55975 25.6306Z" fill="#442F32"></path><path d="M29.134 19.3263C29.1855 19.378 29.1855 19.4813 29.134 19.4813C29.0824 19.533 29.0824 19.5847 28.9793 19.6364L28.1543 20.2048L27.8964 20.3598C27.6902 20.4632 27.5355 20.5148 27.3808 20.5148C27.2777 20.4632 27.123 20.4115 27.0198 20.3081C26.9167 20.2048 26.8136 20.0498 26.7104 19.9464C26.6073 19.7914 26.5042 19.688 26.4011 19.533C26.2979 19.4297 26.1948 19.4297 26.0401 19.4813C25.8854 19.5847 25.6792 19.688 25.5245 19.7397C25.3698 19.8431 25.1635 19.9464 25.0088 20.0498C24.8026 20.1531 24.5963 20.3081 24.4416 20.4632C24.2353 20.6182 24.0807 20.7215 23.8744 20.8766C23.7713 20.9282 23.7197 20.9799 23.6681 21.0316C23.6166 21.0833 23.5134 21.0833 23.4103 21.1349C23.2041 21.1866 23.1525 21.3416 23.2041 21.4967C23.2556 21.6517 23.3072 21.8584 23.3587 22.0134C23.4619 22.1684 23.5134 22.3751 23.565 22.5301C23.6166 22.6852 23.6166 22.8402 23.5134 22.9435C23.4619 22.9952 23.3587 23.0986 23.2556 23.1502C23.1525 23.2019 23.1009 23.2536 22.9978 23.3053C22.9462 23.3569 22.8431 23.4086 22.74 23.4603C22.6368 23.512 22.4821 23.5636 22.3275 23.667C22.1728 23.7187 22.0696 23.7703 21.9149 23.7703C21.8118 23.822 21.7087 23.7703 21.6571 23.7187C21.6571 23.7187 21.6056 23.5636 21.5024 23.2536C21.3993 22.9952 21.3477 22.6335 21.193 22.2201C21.0899 21.8067 20.9352 21.3933 20.8321 20.8766C20.6774 20.4115 20.5743 19.9464 20.4711 19.533C20.368 19.1196 20.2649 18.7579 20.2133 18.4995C20.1617 18.1895 20.1102 18.0344 20.1102 17.9828C20.1102 17.8278 20.0586 17.6727 20.007 17.5694C19.9555 17.466 19.9039 17.311 19.8524 17.2077C19.8008 16.9493 19.6977 16.6909 19.6977 16.4842C19.6461 16.2258 19.5945 15.9675 19.4914 15.7608C19.4398 15.6574 19.3883 15.4507 19.2851 15.1923C19.182 14.934 19.1305 14.6239 19.0273 14.3139C18.9242 14.0038 18.8726 13.6938 18.8211 13.4354C18.7695 13.177 18.7179 12.9703 18.7179 12.867C18.6664 12.6086 18.6148 12.3502 18.5632 12.0919C18.5117 11.8852 18.4085 11.6268 18.357 11.3684C18.3054 11.11 18.357 10.9033 18.5117 10.8C18.7179 10.645 18.8726 10.5416 19.0789 10.4383C19.182 10.3866 19.2851 10.3866 19.3883 10.4383C19.4914 10.49 19.5945 10.5416 19.6977 10.5933C19.8008 10.645 19.9039 10.7483 19.9555 10.8C20.0586 10.955 20.2649 11.1617 20.5743 11.4201C20.8836 11.7301 21.193 11.9885 21.5024 12.2986C21.8118 12.6086 22.1212 12.867 22.379 13.1254C22.6368 13.3837 22.7915 13.4871 22.7915 13.5388C22.7915 13.5388 22.8431 13.5904 22.9462 13.6938C23.0494 13.7971 23.1525 13.9005 23.2556 14.0038C23.3587 14.1072 23.4619 14.2105 23.6166 14.3139C23.7197 14.4172 23.7713 14.4689 23.8228 14.5206C24.0807 14.7273 24.3385 14.9856 24.5447 15.1923C24.8026 15.4507 25.0088 15.6574 25.2666 15.8641C25.3698 15.9675 25.5245 16.0708 25.7307 16.2775C25.937 16.4325 26.1948 16.6392 26.4526 16.8976C26.7104 17.1043 27.0198 17.3627 27.2777 17.6211C27.587 17.8794 27.8449 18.1378 28.0511 18.3445C28.3089 18.5512 28.5152 18.7579 28.6699 18.9129C28.9793 19.1713 29.0824 19.2746 29.134 19.3263ZM24.6479 17.9828C24.4932 17.8278 24.3385 17.7244 24.1838 17.5694C24.0291 17.466 23.8744 17.311 23.7197 17.156C23.3587 16.7943 22.9978 16.4325 22.5853 16.0708C22.2243 15.7091 21.8118 15.3474 21.4509 15.0373C21.4509 15.1923 21.4509 15.3474 21.5024 15.6057C21.554 15.8641 21.6056 16.0708 21.7087 16.3292C21.7602 16.5876 21.8634 16.7943 21.9665 17.0526C22.0696 17.2593 22.1212 17.466 22.1728 17.6211C22.2243 17.7244 22.2243 17.8794 22.2759 17.9828C22.3275 18.1378 22.3275 18.2928 22.379 18.4478C22.4306 18.6029 22.4306 18.7579 22.4821 18.9129C22.5337 19.0679 22.5853 19.1713 22.6368 19.2746H22.6884C22.9978 19.1196 23.2556 18.9646 23.5134 18.8096C23.7713 18.6545 24.0807 18.4995 24.3385 18.2928C24.39 18.1895 24.5447 18.0861 24.6479 17.9828Z" fill="#442F32"></path><path d="M42.0767 2.06699C42.1799 2.48038 42.283 2.79043 42.283 2.99713C42.283 3.20383 42.283 3.35885 42.1799 3.4622C42.0767 3.56555 41.922 3.61722 41.7158 3.6689C41.5095 3.72057 41.2001 3.77225 40.7876 3.8756L39.5501 4.23732C39.3954 4.289 39.3438 4.34067 39.3954 4.39234C39.3954 4.44402 39.4469 4.54737 39.4469 4.65072C39.5501 4.96077 39.6016 5.27081 39.7048 5.58086C39.7563 5.89091 39.8595 6.20096 39.9626 6.511C40.0142 6.7177 40.0657 6.87273 40.1689 7.07943C40.2204 7.23445 40.3235 7.44115 40.3751 7.64785C40.4267 7.80287 40.4782 8.00957 40.4782 8.16459C40.5298 8.31962 40.5814 8.52631 40.5814 8.68134L41.7674 13.0737C41.8189 13.2287 41.8705 13.3837 41.922 13.5388C41.9736 13.6938 42.0252 13.8488 42.0767 14.0038C42.1283 14.2622 42.1283 14.4689 42.0767 14.6239C41.9736 14.7789 41.8189 14.8823 41.5611 14.934C41.097 15.0373 40.7876 15.1407 40.5814 15.1407C40.3751 15.1407 40.2204 15.1407 40.1173 15.0373C40.0142 14.934 39.9626 14.7789 39.911 14.5206C39.8595 14.2622 39.8079 13.9522 39.6532 13.4871C39.4985 12.9187 39.3438 12.2986 39.1376 11.7301C38.9829 11.1617 38.7766 10.5416 38.6219 9.9732C38.5703 9.81818 38.5703 9.66316 38.5188 9.50813C38.4672 9.35311 38.4672 9.19809 38.4157 9.09474C38.3125 8.62966 38.1578 8.21627 38.0031 7.7512C37.8484 7.28612 37.6938 6.87273 37.5906 6.40765C37.5906 6.35598 37.5391 6.30431 37.5391 6.20096C37.5391 6.14928 37.5391 6.09761 37.4875 5.99426C37.4359 5.83923 37.3844 5.68421 37.3328 5.52919C37.2812 5.37416 37.2297 5.21914 37.1781 5.06411C37.1781 4.96077 37.1265 4.90909 37.075 4.90909C37.0234 4.90909 36.9718 4.90909 36.8687 4.90909C36.4562 5.01244 36.0437 5.11579 35.6312 5.21914C35.2186 5.32249 34.8061 5.42584 34.3936 5.52919C34.2389 5.58086 34.1358 5.58086 34.0327 5.52919C33.9811 5.47751 33.878 5.37416 33.8264 5.21914C33.7748 5.06411 33.7233 4.90909 33.6717 4.75407C33.6201 4.59904 33.5686 4.44402 33.517 4.289C33.4655 4.13397 33.4655 3.97895 33.4655 3.82392C33.4655 3.6689 33.5686 3.56555 33.7233 3.51388C34.4967 3.30718 35.2187 3.10048 35.9921 2.89378C36.7656 2.68708 37.4875 2.48038 38.261 2.27368C38.7766 2.11866 39.2923 1.96364 39.8079 1.86029C40.3235 1.70526 40.8392 1.60191 41.3548 1.49857C41.5611 1.44689 41.6642 1.49856 41.7158 1.65359C41.9736 1.75694 42.0252 1.91196 42.0767 2.06699Z" fill="#442F32"></path><path d="M64.8166 12.4536C64.8166 12.7636 64.7651 12.9703 64.6619 13.1254C64.6104 13.2804 64.4041 13.3837 64.0947 13.3321C63.94 13.3321 63.8369 13.3321 63.6822 13.3321C63.5275 13.3321 63.3728 13.3321 63.2697 13.3321C63.115 13.3321 63.0119 13.2804 62.8572 13.2804C62.754 13.2287 62.5993 13.2287 62.4446 13.2287C62.0837 13.177 61.6712 13.177 61.3102 13.177C60.9493 13.177 60.5368 13.1254 60.1242 13.1254C59.557 13.0737 58.9383 13.0737 58.371 13.022C57.8038 13.022 57.1851 12.9703 56.6178 12.9187C56.3085 12.9187 56.1538 12.7636 56.2053 12.4536C56.2053 12.2986 56.2569 12.1952 56.2569 12.0402C56.3085 11.8852 56.3085 11.7818 56.3085 11.6268C56.3085 11.4718 56.3085 11.3684 56.3085 11.2134C56.3085 11.0584 56.3085 10.955 56.3085 10.8C56.3085 10.7483 56.36 10.645 56.36 10.5933C56.36 10.5416 56.4116 10.4383 56.4116 10.3866C56.4632 10.0249 56.4632 9.71483 56.4632 9.3531C56.4632 8.99138 56.5147 8.68133 56.5147 8.31961C56.5663 7.64784 56.6178 7.02774 56.6178 6.35597C56.6178 5.73588 56.6694 5.06411 56.721 4.44401C56.721 4.28899 56.7725 4.08229 56.7725 3.92727C56.8241 3.77224 56.8241 3.56554 56.8241 3.35884C56.8241 3.0488 56.8241 2.73875 56.8241 2.4287C56.8241 2.11865 56.8241 1.80861 56.8241 1.49856C56.8241 1.29186 56.8757 1.08516 56.8757 0.930137C56.8757 0.723438 56.9272 0.568414 56.9788 0.41339C57.0304 0.258366 57.1335 0.155017 57.2882 0.0516678C57.4429 -0.0516815 57.5976 -0.0516815 57.8554 -0.0516815C58.0101 -0.0516815 58.2163 -0.0516815 58.371 -0.0516815C58.5257 -0.0516815 58.732 -0.0516815 58.8867 -0.0516815L61.8259 0.155017C62.0321 0.155017 62.29 0.155017 62.4962 0.155017C62.7025 0.155017 62.9603 0.155017 63.1666 0.155017C63.3212 0.155017 63.4244 0.206692 63.5275 0.206692C63.6306 0.258366 63.7853 0.258366 63.8885 0.258366L64.8166 0.310041C65.0744 0.310041 65.1776 0.465065 65.1776 0.723438C65.1776 0.826787 65.1776 0.930137 65.126 0.981811C65.126 1.08516 65.0744 1.13684 65.0744 1.24018C65.0744 1.44688 65.0229 1.65358 64.9713 1.75693C64.9197 1.86028 64.8682 1.96363 64.7651 2.0153C64.6619 2.06698 64.5588 2.06698 64.4041 2.06698C64.2494 2.06698 64.0947 2.06698 63.8885 2.0153C63.3728 1.96363 62.9087 1.91195 62.4446 1.86028C61.9806 1.80861 61.4649 1.75693 61.0008 1.70526C60.6915 1.70526 60.4336 1.65358 60.1242 1.65358C59.8149 1.65358 59.5055 1.65358 59.2476 1.65358C59.1445 1.65358 59.0929 1.65358 59.0929 1.70526C59.0929 1.70526 59.0414 1.75693 59.0414 1.86028C58.9898 2.11865 58.9898 2.32535 58.9383 2.58372C58.9383 2.8421 58.8867 3.0488 58.8351 3.30717C58.8351 3.35884 58.8351 3.46219 58.7836 3.56554C58.732 3.66889 58.7836 3.82392 58.732 3.92727C58.732 4.08229 58.732 4.18564 58.732 4.28899C58.732 4.39234 58.7836 4.44401 58.8351 4.44401C59.557 4.49569 60.3305 4.54736 61.0524 4.54736C61.8259 4.54736 62.5478 4.59904 63.2697 4.65071C63.4244 4.65071 63.5275 4.70239 63.6822 4.70239C63.8369 4.75406 63.94 4.80573 64.0431 4.90908C64.0431 4.96076 64.0431 5.01243 64.0431 5.11578C64.0431 5.21913 64.0431 5.32248 64.0431 5.42583C64.0431 5.52918 64.0431 5.63253 64.0431 5.73588C64.0431 5.83923 64.0431 5.8909 64.0431 5.94258C64.0431 6.04593 64.0431 6.0976 63.9916 6.14928C63.9916 6.20095 63.94 6.25262 63.8885 6.35597C63.8369 6.40765 63.7338 6.45932 63.4759 6.45932C63.2697 6.45932 63.0119 6.45932 62.754 6.45932C62.4962 6.45932 62.2384 6.40765 61.9806 6.40765C61.7227 6.40765 61.568 6.35597 61.4649 6.35597C61.0524 6.3043 60.5883 6.3043 60.1758 6.3043C59.7633 6.3043 59.2992 6.25262 58.8867 6.25262C58.732 6.25262 58.6289 6.25262 58.5773 6.3043C58.5257 6.35597 58.4742 6.40765 58.4742 6.56267C58.4742 6.82105 58.4226 7.07942 58.4226 7.33779C58.4226 7.59617 58.4226 7.85454 58.371 8.11291C58.371 8.42296 58.3195 8.78468 58.2679 9.09473C58.2163 9.40478 58.1648 9.7665 58.1648 10.0765C58.1648 10.1282 58.1648 10.2316 58.1132 10.3349C58.1132 10.4383 58.1132 10.5416 58.1132 10.645C58.1132 10.7483 58.1132 10.8 58.1648 10.9033C58.1648 10.955 58.2163 11.0067 58.2679 11.0067C58.4226 11.0067 58.5773 11.0067 58.732 11.0067C58.8867 11.0067 59.0414 11.0067 59.1961 11.0067C59.3508 11.0067 59.4539 11.0584 59.557 11.0584C59.6602 11.0584 59.8148 11.11 59.918 11.11C60.5368 11.1617 61.1555 11.1617 61.8259 11.1617C62.4446 11.1617 63.0634 11.2134 63.7338 11.2134C64.0947 11.2651 64.301 11.3167 64.3525 11.4718C64.8166 11.8852 64.8682 12.0919 64.8166 12.4536Z" fill="#442F32"></path><path d="M84.3081 19.3263C84.2565 19.4297 84.1534 19.4297 83.9987 19.378C83.844 19.3263 83.6378 19.2746 83.4315 19.223C83.2253 19.1713 83.019 19.0679 82.8127 19.0163C82.6065 18.9646 82.5034 18.8612 82.4002 18.8612C82.2455 18.8096 82.1424 18.7062 82.0908 18.6029C81.9877 18.4995 81.9361 18.3445 81.9361 18.1895C81.833 17.621 81.6783 17.1043 81.5752 16.5359C81.4205 15.9675 81.3174 15.4507 81.2658 14.8823C81.2658 14.7789 81.2142 14.6239 81.1111 14.4689C81.008 14.3139 80.9048 14.2105 80.8017 14.1588C80.7502 14.1588 80.647 14.1072 80.4408 14.0555C80.2861 14.0038 80.0798 13.9521 79.9251 13.8488C79.7704 13.7971 79.5642 13.7454 79.4095 13.6421C79.2548 13.5904 79.1517 13.5387 79.1001 13.5387C78.997 13.5387 78.9454 13.5387 78.9454 13.5387C78.8938 13.5387 78.8938 13.5904 78.8423 13.6938C78.6876 14.1588 78.4813 14.5722 78.3266 15.0373C78.1204 15.5024 77.9657 15.9158 77.7594 16.3809C77.6563 16.6392 77.5016 16.7426 77.2953 16.7426C77.0891 16.7426 76.8828 16.6909 76.6766 16.5876C76.3156 16.4325 76.0578 16.2775 75.9031 16.1742C75.7484 16.0708 75.6453 15.9158 75.6453 15.7608C75.6453 15.6057 75.6968 15.4507 75.7484 15.244C75.8515 15.0373 75.9547 14.7789 76.1093 14.4172L76.7281 12.867C76.7797 12.7636 76.7797 12.6603 76.8313 12.5569C76.8313 12.4536 76.8828 12.3502 76.9344 12.2469C76.9859 12.0919 77.0375 11.9368 77.1406 11.7818C77.1922 11.6268 77.2953 11.4718 77.3469 11.3167C77.45 11.11 77.5016 10.9033 77.5532 10.6966C77.6047 10.4899 77.6563 10.2832 77.7594 10.0765C77.811 9.92152 77.9141 9.71483 77.9657 9.5598C78.0688 9.40478 78.1204 9.19808 78.1719 9.04306C78.2235 8.88803 78.3266 8.68133 78.3782 8.52631C78.4298 8.37129 78.5329 8.16459 78.5844 8.00956C78.636 7.85454 78.6876 7.69952 78.7391 7.49282C78.7907 7.28612 78.8423 7.13109 78.8938 6.97607C78.9454 6.9244 78.9454 6.82105 78.997 6.76937C79.0485 6.7177 79.1001 6.66602 79.1001 6.56267C79.1517 6.511 79.1517 6.40765 79.1517 6.35597C79.1517 6.25263 79.2032 6.20095 79.2032 6.14928C79.2548 6.04593 79.3063 5.99425 79.3579 5.8909C79.4095 5.78755 79.461 5.73588 79.5126 5.63253C79.6157 5.42583 79.6673 5.21913 79.7189 5.01243C79.7704 4.80574 79.8736 4.59904 79.9251 4.39234C79.9767 4.28899 80.0283 4.18564 80.0798 4.13397C80.1314 4.08229 80.2345 4.08229 80.3892 4.08229C80.4923 4.08229 80.6986 4.18564 81.0595 4.28899C81.4205 4.39234 81.7814 4.54736 82.194 4.70239C82.6065 4.85741 82.9674 5.01243 83.3799 5.16746C83.7409 5.32248 83.9987 5.42583 84.1534 5.47751C84.5144 5.63253 84.8753 5.78755 85.2363 6.04593C85.5972 6.25263 85.9066 6.511 86.216 6.82105C86.5254 7.13109 86.7832 7.44114 86.9379 7.75119C87.1442 8.11291 87.2473 8.47464 87.2989 8.88803C87.2989 9.04306 87.3504 9.14641 87.3504 9.30143C87.3504 9.45645 87.3504 9.5598 87.402 9.71483C87.402 9.7665 87.402 9.81817 87.402 9.9732C87.402 10.0765 87.3504 10.2316 87.3504 10.3866C87.2989 10.5416 87.2989 10.645 87.2473 10.8C87.1957 10.955 87.1957 11.0067 87.1442 11.0584C87.041 11.3167 86.8863 11.6268 86.7316 11.9368C86.577 12.2469 86.3707 12.5569 86.1129 12.8153C85.9066 13.0737 85.6488 13.3321 85.391 13.5904C85.1331 13.7971 84.8238 14.0038 84.5659 14.1072C84.3597 14.1588 84.1534 14.2105 83.9472 14.2622C83.7409 14.3139 83.5346 14.3139 83.3284 14.4172C83.3284 14.5206 83.3284 14.6239 83.3284 14.7273C83.3284 14.8306 83.3284 14.934 83.3799 15.0373C83.4831 15.5541 83.5862 16.0708 83.6893 16.5876C83.7925 17.1043 83.9472 17.621 84.1019 18.1378C84.1019 18.1895 84.1534 18.2411 84.1534 18.3445C84.1534 18.4478 84.205 18.5512 84.205 18.6545C84.205 18.7579 84.2565 18.8612 84.2565 18.9646C84.3081 19.223 84.3081 19.2746 84.3081 19.3263ZM85.0816 10.6966C85.1847 10.4899 85.2363 10.2316 85.2363 9.92153C85.2363 9.61148 85.2363 9.3531 85.2363 9.14641C85.1847 8.78468 85.03 8.42296 84.8238 8.16459C84.5659 7.90621 84.3081 7.64784 83.9472 7.44114C83.5862 7.23444 83.2253 7.07942 82.8643 6.9244C82.5034 6.76937 82.1424 6.66602 81.833 6.511C81.7814 6.511 81.7814 6.511 81.7299 6.511C81.6783 6.511 81.6783 6.511 81.6268 6.511C81.5236 6.82105 81.4205 7.13109 81.2658 7.38947C81.1111 7.69952 81.008 8.00956 80.9048 8.26794C80.7502 8.62966 80.5955 8.99138 80.4923 9.40478C80.3376 9.7665 80.1829 10.1799 80.0798 10.5416C79.9767 10.7483 79.9251 10.955 79.822 11.1617C79.7189 11.3684 79.6673 11.5751 79.5642 11.7818C79.5126 11.8852 79.5126 11.9885 79.5642 12.0402C79.6157 12.0919 79.7189 12.1435 79.822 12.1952C79.9767 12.2469 80.1829 12.2986 80.4408 12.4019C80.6986 12.5053 81.008 12.5569 81.3174 12.6603C81.6268 12.7636 81.8846 12.8153 82.1424 12.867C82.4002 12.9187 82.6065 12.9187 82.7096 12.8153C82.8127 12.7636 82.9674 12.712 83.1221 12.712C83.2768 12.712 83.3799 12.6603 83.5346 12.5569C83.8956 12.3502 84.205 12.0919 84.4628 11.7818C84.7206 11.4201 84.9269 11.0584 85.0816 10.6966Z" fill="#442F32"></path><path d="M96.9414 25.2172C96.8898 25.3206 96.7867 25.4239 96.7867 25.4756C96.7351 25.5273 96.632 25.6306 96.5288 25.7856C96.4257 25.9407 96.3226 26.044 96.2195 26.199C96.1163 26.3024 96.0132 26.4057 95.9101 26.4574C95.8069 26.5091 95.7038 26.5091 95.5491 26.4057C95.1882 26.1474 94.8788 25.9923 94.7241 25.8373C94.5178 25.734 94.4147 25.5789 94.3631 25.4756C94.3116 25.3722 94.3631 25.2172 94.4663 25.0105C94.5694 24.8555 94.7241 24.5971 94.9303 24.2354C95.3944 23.512 95.8069 22.7885 96.2195 22.0651C96.632 21.3416 97.096 20.6699 97.5601 19.9464C97.7664 19.6364 97.9726 19.378 98.1789 19.0679C98.3852 18.7579 98.5914 18.4995 98.7977 18.1895C98.9008 18.0345 99.0039 17.8278 99.1071 17.6211C99.2102 17.4144 99.3133 17.2593 99.4165 17.0526L100.912 14.7789C100.963 14.6756 101.067 14.6756 101.221 14.6756C101.376 14.7273 101.479 14.7789 101.634 14.8306C101.788 14.8823 101.943 14.9856 102.046 15.089C102.201 15.1923 102.304 15.244 102.356 15.2957C102.717 15.5024 102.768 15.7608 102.562 16.0708L101.582 17.5177C101.479 17.7244 101.324 17.8794 101.221 18.0861C101.118 18.2928 101.015 18.4995 100.86 18.7062C100.706 18.9646 100.499 19.223 100.345 19.4297C100.19 19.6364 99.9837 19.8947 99.829 20.1531C99.6227 20.4115 99.468 20.7215 99.3133 21.0316C99.1586 21.3416 99.0039 21.6 98.7977 21.8584C98.7461 21.9617 98.643 22.0651 98.643 22.2201C98.5914 22.3234 98.5399 22.4785 98.4883 22.5818C98.4367 22.6335 98.3852 22.6852 98.3336 22.7368C98.282 22.7885 98.2305 22.8402 98.1789 22.8919C98.0758 23.0469 97.9726 23.2536 97.8695 23.4603C97.7664 23.667 97.6633 23.8737 97.5601 24.0287C97.457 24.1837 97.3539 24.3904 97.2507 24.5455C97.1476 24.8555 97.0445 25.0105 96.9414 25.2172Z" fill="#442F32"></path><path d="M111.586 38.6526C111.534 38.7043 111.483 38.756 111.431 38.7043C111.379 38.7043 111.328 38.6526 111.276 38.601L110.451 37.9809L110.245 37.7742C110.09 37.6191 109.987 37.4641 109.987 37.3608C109.987 37.2057 109.987 37.1024 110.09 36.9474C110.142 36.7923 110.245 36.689 110.348 36.534C110.451 36.3789 110.554 36.2756 110.606 36.1206C110.658 35.9656 110.658 35.8622 110.503 35.7589C110.348 35.6038 110.245 35.5005 110.09 35.3455C109.936 35.1904 109.781 35.0871 109.626 34.9321C109.472 34.777 109.265 34.622 109.059 34.5187C108.853 34.3636 108.647 34.2603 108.492 34.1053C108.389 34.0536 108.337 34.0019 108.286 33.9502C108.234 33.8986 108.182 33.8469 108.079 33.7435C107.925 33.6402 107.77 33.5885 107.667 33.6919C107.512 33.7952 107.357 33.8986 107.254 34.0019C107.1 34.1569 106.996 34.2603 106.842 34.3636C106.687 34.467 106.584 34.5187 106.429 34.4153C106.326 34.3636 106.223 34.312 106.171 34.2603C106.068 34.2086 106.017 34.1569 105.914 34.0536C105.862 34.0019 105.81 33.9502 105.707 33.8469C105.604 33.7435 105.501 33.6402 105.398 33.5368C105.295 33.4335 105.243 33.3301 105.14 33.2268C105.089 33.1234 105.089 33.0201 105.14 32.9684C105.14 32.9684 105.295 32.8651 105.501 32.71C105.759 32.555 106.017 32.3483 106.378 32.09C106.739 31.8316 107.1 31.5732 107.512 31.3148C107.925 31.0565 108.286 30.7981 108.647 30.5397C109.007 30.333 109.317 30.1263 109.575 29.9713C109.832 29.8163 109.987 29.7129 110.039 29.7129C110.193 29.6612 110.297 29.5579 110.4 29.5062C110.503 29.4029 110.606 29.2995 110.709 29.2478C110.915 29.0928 111.122 28.9895 111.379 28.8344C111.586 28.7311 111.844 28.5761 111.998 28.4211C112.101 28.3177 112.256 28.2144 112.514 28.0593C112.772 27.9043 113.029 27.6976 113.287 27.5426C113.545 27.3359 113.803 27.1809 114.061 27.0258C114.319 26.8708 114.473 26.7675 114.576 26.7158C114.834 26.6124 115.041 26.4574 115.247 26.3541C115.453 26.199 115.659 26.0957 115.866 25.9407C116.072 25.7856 116.278 25.7856 116.484 25.9407C116.691 26.0957 116.845 26.199 117.052 26.4057C117.155 26.5091 117.155 26.6124 117.155 26.7158C117.155 26.8191 117.103 26.9225 117.103 27.0775C117.052 27.1809 117.052 27.2842 117 27.3876C116.897 27.5426 116.794 27.801 116.587 28.2144C116.433 28.5761 116.227 28.9895 116.072 29.4029C115.917 29.8163 115.711 30.178 115.556 30.488C115.401 30.7981 115.298 31.0048 115.298 31.0048C115.298 31.0048 115.247 31.0565 115.195 31.2115C115.144 31.3148 115.092 31.4699 114.989 31.6249C114.937 31.7799 114.834 31.9349 114.783 32.0383C114.731 32.1933 114.68 32.245 114.68 32.2967C114.525 32.6067 114.422 32.9167 114.267 33.2268C114.112 33.5368 113.958 33.8469 113.855 34.1569C113.803 34.2603 113.7 34.467 113.597 34.7254C113.494 34.9837 113.39 35.2938 113.236 35.6038C113.081 35.9139 112.978 36.2756 112.823 36.6373C112.669 36.999 112.514 37.3091 112.411 37.6191C112.256 37.9292 112.153 38.1876 112.05 38.3943C111.74 38.4459 111.637 38.5493 111.586 38.6526ZM111.483 33.9502C111.586 33.7435 111.637 33.5368 111.689 33.3818C111.74 33.1751 111.844 32.9684 111.895 32.8134C112.153 32.3483 112.359 31.8833 112.565 31.4182C112.772 30.9531 112.978 30.488 113.184 30.023C113.029 30.0746 112.875 30.1263 112.669 30.2297C112.462 30.333 112.256 30.488 112.05 30.6431C111.844 30.7981 111.637 30.9531 111.431 31.1081C111.225 31.2632 111.07 31.3665 110.967 31.4699C110.864 31.5215 110.761 31.6249 110.658 31.6766C110.503 31.7282 110.4 31.8316 110.245 31.9349C110.09 32.0383 109.987 32.09 109.884 32.1933C109.781 32.2967 109.678 32.3483 109.575 32.4517V32.5034C109.781 32.71 110.039 32.9684 110.297 33.1751C110.554 33.3818 110.761 33.5885 111.018 33.7952C111.173 33.7952 111.328 33.8469 111.483 33.9502Z" fill="#442F32"></path></g><defs><clipPath id="clip0_6_15983"><rect width="117" height="108" fill="white"></rect></clipPath></defs></svg>